HIERARCHY
ROOT pelvis
{
  OFFSET 0 100 0
  CHANNELS 6 Xposition Yposition Zposition Zrotation Xrotation Yrotation
  JOINT pelvis_right_femur
  {
    OFFSET -10.78128 -3.44521 -0.5502486
    CHANNELS 3 Zrotation Xrotation Yrotation
    JOINT right_femur_tibia
    {
      OFFSET -0.8047443 -44.0398 -0.1307829
      CHANNELS 3 Zrotation Xrotation Yrotation
      JOINT right_tibia_foot
      {
        OFFSET 3.006224 -47.83518 -5
        CHANNELS 3 Zrotation Xrotation Yrotation
        End Site
        {
          OFFSET 0 -5 15
        }
      }
    }
  }
  JOINT pelvis_left_femur
  {
    OFFSET 10.78128 -3.44521 -0.5502486
    CHANNELS 3 Zrotation Xrotation Yrotation
    JOINT left_femur_tibia
    {
      OFFSET 0.8047443 -44.0398 -0.1307829
      CHANNELS 3 Zrotation Xrotation Yrotation
      JOINT left_tibia_foot
      {
        OFFSET -4.370144 -48.10324 -4.275266
        CHANNELS 3 Zrotation Xrotation Yrotation
        End Site
        {
          OFFSET 0 -5 15
        }
      }
    }
  }
  JOINT pelvis_spine1
  {
    OFFSET 0 6.468898 -3.129235
    CHANNELS 3 Zrotation Xrotation Yrotation
    JOINT spine1
    {
      OFFSET 0 23.15396 4.99043
      CHANNELS 3 Zrotation Xrotation Yrotation
      JOINT spine2
      {
        OFFSET 0 20.79997 -5.064912
        CHANNELS 3 Zrotation Xrotation Yrotation
        JOINT neck
        {
          OFFSET 0 14.38658 9.616178
          CHANNELS 3 Zrotation Xrotation Yrotation
          End Site
          {
            OFFSET 0 20 0
          }
        }
      }
      JOINT right_manubrium
      {
        OFFSET -5.722621 16.35077 3.967754
        CHANNELS 3 Zrotation Xrotation Yrotation
        JOINT right_clavicle
        {
          OFFSET -13.16364 1.694482 -4.693211
          CHANNELS 3 Zrotation Xrotation Yrotation
          JOINT right_humerus
          {
            OFFSET -28.5034 -0.3100689 -2.792744
            CHANNELS 3 Zrotation Xrotation Yrotation
            JOINT right_radius
            {
              OFFSET -25.15693 0.02248979 -1.271978
              CHANNELS 3 Zrotation Xrotation Yrotation
              End Site
              {
                OFFSET -15 0 0
              }
            }
          }
        }
      }
      JOINT left_manubrium
      {
        OFFSET 5.722621 16.35077 3.967754
        CHANNELS 3 Zrotation Xrotation Yrotation
        JOINT left_clavicle
        {
          OFFSET 13.16364 1.694482 -4.693211
          CHANNELS 3 Zrotation Xrotation Yrotation
          JOINT left_humerus
          {
            OFFSET 29.39168 -1.063119 -2.237045
            CHANNELS 3 Zrotation Xrotation Yrotation
            JOINT left_radius
            {
              OFFSET 24.59957 -0.9528479 0.9047498
              CHANNELS 3 Zrotation Xrotation Yrotation
              End Site
              {
                OFFSET 15 -0 -0
              }
            }
          }
        }
      }
    }
  }
}
MOTION
Frames: 17
Frame Time: 0.0416666666667
1554.987 107.8339 2440.706 6.61045 -1.530323 59.16433 -0.9685889 -10.86396 3.155208 -0 47.10378 -0 0.2328366 2.491471 -6.718578 -6.543537 4.580982 -10.50533 -0 16.32367 -0 -2.549473 -16.52014 16.40433 -3.908278 -0.2052622 4.02812 0.258858 11.01816 -6.836525 1.046336 22.33083 7.523364 2.929577 -18.6109 8.011181 4.525095 -17.22713 11.34723 87.91853 30.46674 -17.95121 -0 0 12.58679 -24.29224 14.13275 13.30697 3.820527 -19.80126 -5.328866 -86.20055 27.15966 15.20963 0 0 -20.59243 -2.679907 8.029572 18.15018
1559.565 107.6383 2442.974 5.742002 -1.173231 60.11336 -0.5769563 -17.08403 1.950493 -0 37.71051 -0 0.1157234 1.644722 -7.014154 -6.221437 8.881312 -9.846604 -0 12.95797 -0 -2.729521 -18.56531 15.35311 -3.723254 -0.1682752 3.39472 0.7364605 10.61891 -7.581331 1.022667 22.09345 7.540597 2.838458 -18.66003 8.057839 3.861047 -16.5678 11.10058 89.16311 29.94539 -20.09922 -0 0 11.059 -23.87822 14.24998 12.75735 4.774173 -21.19612 -5.40193 -83.99835 26.32153 11.43772 0 0 -24.71307 -1.575183 8.239181 16.35703
1564.368 106.8455 2445.494 4.870032 -0.9312953 60.95987 -0.1745772 -22.41607 0.7990745 -0 28.37522 -0 -0.1042052 0.9256605 -7.193948 -5.854151 12.53364 -9.072383 -0 11.08072 -0 -3.273759 -20.07612 14.17278 -3.419355 -0.09044663 2.829724 1.152545 10.17856 -8.177175 1.041878 21.89044 7.516107 2.760562 -18.69441 8.086295 3.168036 -15.85236 10.8531 90.2452 29.32679 -21.89669 -0 0 9.540411 -23.52128 14.3043 12.24142 5.66408 -22.39945 -5.384761 -82.13493 25.27852 7.997229 0 0 -28.31178 -0.4127966 8.375086 14.52309
1569.403 105.6304 2448.267 4.055446 -0.8208864 61.67457 0.3429663 -26.51489 -0.01527024 -0 20.21766 -0 -0.4683749 0.215082 -7.307947 -5.47564 15.38538 -8.415303 -0 11.24553 -0 -4.111303 -20.85582 12.99983 -3.026419 0.008666381 2.370752 1.512963 9.736154 -8.613698 1.095221 21.74558 7.449385 2.702871 -18.76294 8.097623 2.620018 -15.1216 10.64859 91.09184 28.85153 -23.32207 -0 0 8.140946 -22.99946 14.3256 11.68524 6.347127 -23.28293 -5.27559 -80.83059 24.41715 5.299708 0 0 -31.02661 0.5616748 8.497801 13.02693
1574.636 104.2504 2451.269 3.315036 -0.8432183 62.23075 1.098919 -29.06959 -0.2550801 -0 14.19398 -0 -1.014608 -0.5378721 -7.373783 -5.087794 17.29823 -8.078101 -0 13.80686 -0 -5.189364 -20.74839 11.95123 -2.564167 0.1110008 2.04366 1.819584 9.303206 -8.872477 1.177293 21.67232 7.348537 2.677696 -18.92393 8.10105 2.354047 -14.40661 10.50706 91.63616 28.72817 -24.3356 -0 0 6.962448 -22.13602 14.31598 11.04176 6.708032 -23.71628 -5.062706 -80.21111 24.086 3.670148 0 0 -32.51435 1.152443 8.674439 12.17699
1580.027 103.0091 2454.462 2.647501 -0.9879856 62.60892 2.144013 -29.83273 0.1664919 -0 10.88489 -0 -1.754785 -1.287906 -7.372389 -4.682649 18.13085 -8.154969 -0 18.83969 -0 -6.461047 -19.67365 11.11488 -2.044571 0.204729 1.867596 2.063604 8.884194 -8.929729 1.284134 21.67254 7.226836 2.698445 -19.21786 8.104984 2.430705 -13.73837 10.43026 91.82699 29.06316 -24.87308 -0 0 6.083879 -20.88573 14.25601 10.32103 6.686845 -23.61504 -4.737704 -80.33238 24.45421 3.308613 0 0 -32.54816 1.268909 8.936751 12.1207
1585.561 102.1965 2457.805 2.102761 -1.243538 62.79567 3.387617 -28.60676 1.119232 -0 10.30604 -0 -2.651238 -1.936107 -7.263132 -4.264544 17.67349 -8.545585 -0 26.19154 -0 -7.841457 -17.6407 10.57626 -1.481945 0.2939056 1.873613 2.220232 8.518323 -8.761001 1.410888 21.74619 7.088289 2.768799 -19.62039 8.098927 2.805904 -13.1694 10.42146 91.63799 29.79135 -24.84695 -0 0 5.555084 -19.40777 14.13021 9.606166 6.292873 -22.99609 -4.322609 -81.19822 25.3967 4.247923 0 0 -31.11726 0.9644188 9.248542 12.7719
1591.229 102.0201 2461.257 1.870084 -1.606795 62.78063 4.592586 -25.29401 2.287648 -0 11.92216 -0 -3.599805 -2.390848 -7.030895 -3.868167 15.67106 -8.934435 -0 35.49879 -0 -9.139253 -14.79104 10.45993 -0.9209935 0.4052238 2.111123 2.248091 8.324421 -8.357193 1.548781 21.9099 6.913106 2.869665 -19.99266 8.037871 3.333638 -12.7888 10.50798 91.0993 30.64183 -24.19319 -0 0 5.382181 -18.08571 13.96359 9.041088 5.603115 -22.02628 -3.910587 -82.69556 26.47875 6.264687 0 0 -28.51258 0.4379014 9.516404 13.7949
1596.977 102.5327 2464.757 2.257225 -2.074858 62.55783 5.468991 -20.07086 3.316587 -0 14.68715 -0 -4.425243 -2.7151 -6.73163 -3.521291 11.97539 -8.907926 -0 45.84178 -0 -10.03728 -11.49993 10.92446 -0.4612026 0.5783235 2.627343 2.105022 8.475809 -7.748684 1.684389 22.19603 6.656389 2.949939 -20.08738 7.851862 3.801276 -12.72529 10.73592 90.3121 31.19934 -22.93404 -0 0 5.559451 -17.41882 13.8322 8.783595 4.767032 -21.01245 -3.663827 -84.48812 27.11848 8.809653 0 0 -25.35422 -0.03077239 9.645163 14.69186
1602.65 103.5873 2468.217 3.437647 -2.614899 62.13099 5.848701 -13.40418 4.050551 -0 17.22769 -0 -4.915139 -3.403262 -6.465466 -3.148989 6.615473 -8.252961 -0 55.3222 -0 -10.22481 -8.356033 12.10592 -0.2258352 0.830955 3.444342 1.783395 9.039389 -6.994381 1.808891 22.61019 6.270726 2.939282 -19.6948 7.504188 4.031965 -13.13675 11.11882 89.31899 31.15961 -21.10742 -0 0 6.237157 -17.68506 13.7988 8.920742 3.977656 -20.20955 -3.681127 -86.1803 26.99458 11.31227 0 0 -22.30024 -0.2752128 9.607167 15.10719
1608.034 104.8586 2471.519 5.121315 -3.133408 61.51078 5.766206 -5.980612 4.611077 -0 18.35762 -0 -4.897371 -5.304199 -6.264408 -2.58854 -0.09270737 -7.195888 -0 61.28356 -0 -9.646029 -5.960875 13.99706 -0.2705586 1.123674 4.517218 1.340288 9.786837 -6.145134 1.933574 23.07836 5.758261 2.792278 -18.85575 7.072542 3.988474 -14.11448 11.5655 87.96636 30.57961 -18.65277 -0 0 7.774904 -18.61903 13.80777 9.391403 3.411086 -19.57555 -3.822437 -87.68241 26.33366 13.64076 0 0 -19.6052 -0.3808978 9.465238 15.09485
1613.042 105.9203 2474.592 6.637117 -3.493223 60.71121 5.357322 0.9731685 5.082022 -0 17.49853 -0 -4.299075 -8.690827 -6.030515 -1.807395 -7.080678 -6.175184 -0 61.45729 -0 -8.570519 -4.814996 16.25944 -0.5324406 1.379526 5.648479 0.8777348 10.27888 -5.270194 2.086524 23.46612 5.212293 2.524149 -17.84445 6.741528 3.69329 -15.48701 11.87512 86.18288 29.67516 -15.65092 -0 0 10.27183 -19.67264 13.69682 10.01645 3.22969 -18.90832 -3.806447 -89.00761 25.54815 15.71474 0 0 -17.31844 -0.4258368 9.304928 14.79597
1617.83 106.392 2477.472 7.470068 -3.594579 59.77753 4.768553 6.063514 5.286218 -0 14.95596 -0 -3.140519 -12.6365 -5.608817 -0.9949811 -12.87777 -5.409859 -0 55.57033 -0 -7.360294 -5.118713 18.30824 -0.8815695 1.542243 6.572436 0.4679571 10.24609 -4.473295 2.274486 23.66093 4.778087 2.201263 -16.93482 6.659539 3.125857 -16.87563 11.87948 84.27396 28.51334 -12.53341 -0 0 13.26213 -20.61805 13.3658 10.66445 3.521079 -18.16218 -3.516145 -89.935 24.74163 17.13147 0 0 -15.64618 -0.2701123 9.117491 14.11661
1622.68 106.1274 2480.245 7.524084 -3.423968 58.802 4.133946 9.298958 5.145731 -0 12.12167 -0 -1.543528 -15.90123 -4.86975 -0.3168812 -17.22699 -4.858432 -0 45.94309 -0 -6.312594 -6.346002 19.75382 -1.194303 1.582274 7.252401 0.1135446 9.803262 -3.808264 2.435428 23.59226 4.574922 1.915848 -16.35969 6.811442 2.396233 -18.11433 11.62289 82.51858 27.26718 -9.658118 -0 0 16.32566 -21.58231 12.91228 11.39312 4.097075 -17.35468 -3.029923 -90.52016 23.9146 18.13825 0 0 -14.49367 0.01786047 8.768259 13.30244
1627.81 105.2716 2482.962 6.900969 -3.014746 57.88443 3.529326 12.01247 4.883559 -0 10.6554 -0 0.1748452 -17.75177 -3.775373 0.2422496 -21.12113 -4.416518 -0 35.87528 -0 -5.690447 -7.489293 20.51482 -1.393305 1.474367 7.862139 -0.1956157 9.265444 -3.277231 2.452511 23.21916 4.673827 1.775331 -16.37071 7.048725 1.82258 -19.33694 11.32417 80.85894 26.43261 -7.069197 -0 0 19.3727 -22.70801 12.55421 12.40534 4.556176 -16.45411 -2.461491 -91.28163 23.28504 19.82848 0 0 -13.35258 -0.04185353 8.133077 13.1918
1633.318 104.124 2485.639 5.821954 -2.464728 57.10296 2.964288 15.09236 4.680396 -0 11.35994 -0 1.43639 -17.87388 -2.494107 0.7245292 -25.01079 -4.086108 -0 27.58185 -0 -5.619656 -7.889496 20.65709 -1.467101 1.221997 8.440519 -0.4453597 8.876056 -2.8845 2.274701 22.6223 5.043079 1.852559 -17.02656 7.217159 1.643157 -20.59772 11.15427 79.26386 26.39331 -4.787351 -0 0 22.14577 -23.96849 12.38468 13.78128 4.63288 -15.51942 -1.930196 -92.54978 23.0483 22.75728 0 0 -11.83114 -0.7280125 7.327652 14.26392
1639.205 102.9492 2488.31 4.752896 -1.996085 56.51755 2.416132 18.06253 4.442307 -0 14.19227 -0 1.718511 -16.28858 -1.389711 0.9791046 -27.90293 -4.049229 -0 21.67763 -0 -5.90672 -7.666867 20.36937 -1.466337 0.8912748 8.768397 -0.6457963 8.697246 -2.613654 2.021301 22.06942 5.492177 2.097889 -17.9466 7.27713 1.742116 -21.63045 11.08672 78.0979 26.86169 -3.025866 -0 0 24.04681 -25.13847 12.24806 15.2033 4.408523 -14.72892 -1.58387 -93.99811 23.01917 26.02821 0 0 -9.917446 -1.582508 6.75091 15.78266
